# Exported by KoreLib
# You must credit DTZxPorter for use of this asset


mtllib atpov_vortexblocker_LOD0.mtl

v -10.804842 2.660485 2.001514
v -10.152555 3.312772 2.001514
v -10.152555 2.660485 2.001514
v -10.804842 2.660485 2.001514
v -10.804842 3.312772 2.001514
v -10.152555 3.312772 2.001514
v -10.804842 3.312772 2.001514
v -10.152555 3.312772 1.349228
v -10.152555 3.312772 2.001514
v -10.804842 3.312772 2.001514
v -10.804842 3.312772 1.349228
v -10.152555 3.312772 1.349228
v -10.804842 3.312772 1.349228
v -10.152555 2.660485 1.349228
v -10.152555 3.312772 1.349228
v -10.804842 3.312772 1.349228
v -10.804842 2.660485 1.349228
v -10.152555 2.660485 1.349228
v -10.804842 2.660485 1.349228
v -10.152555 2.660485 2.001514
v -10.152555 2.660485 1.349228
v -10.804842 2.660485 1.349228
v -10.804842 2.660485 2.001514
v -10.152555 2.660485 2.001514
v -10.152555 2.660485 2.001514
v -10.152555 3.312772 1.349228
v -10.152555 2.660485 1.349228
v -10.152555 2.660485 2.001514
v -10.152555 3.312772 2.001514
v -10.152555 3.312772 1.349228
v -10.804842 2.660485 1.349228
v -10.804842 3.312772 2.001514
v -10.804842 2.660485 2.001514
v -10.804842 2.660485 1.349228
v -10.804842 3.312772 1.349228
v -10.804842 3.312772 2.001514
vt 0.375000 0.000000
vt 0.625000 0.250000
vt 0.625000 0.000000
vt 0.375000 0.000000
vt 0.375000 0.250000
vt 0.625000 0.250000
vt 0.375000 0.250000
vt 0.625000 0.500000
vt 0.625000 0.250000
vt 0.375000 0.250000
vt 0.375000 0.500000
vt 0.625000 0.500000
vt 0.375000 0.500000
vt 0.625000 0.750000
vt 0.625000 0.500000
vt 0.375000 0.500000
vt 0.375000 0.750000
vt 0.625000 0.750000
vt 0.375000 0.750000
vt 0.625000 1.000000
vt 0.625000 0.750000
vt 0.375000 0.750000
vt 0.375000 1.000000
vt 0.625000 1.000000
vt 0.625000 0.000000
vt 0.875000 0.250000
vt 0.875000 0.000000
vt 0.625000 0.000000
vt 0.625000 0.250000
vt 0.875000 0.250000
vt 0.125000 0.000000
vt 0.375000 0.250000
vt 0.375000 0.000000
vt 0.125000 0.000000
vt 0.125000 0.250000
vt 0.375000 0.250000
vn 0.000000 0.000000 1.000000
vn 0.000000 0.000000 1.000000
vn 0.000000 0.000000 1.000000
vn 0.000000 0.000000 1.000000
vn 0.000000 0.000000 1.000000
vn 0.000000 0.000000 1.000000
vn 0.000000 1.000000 0.000000
vn 0.000000 1.000000 0.000000
vn 0.000000 1.000000 0.000000
vn 0.000000 1.000000 0.000000
vn 0.000000 1.000000 0.000000
vn 0.000000 1.000000 0.000000
vn 0.000000 0.000000 -1.000000
vn 0.000000 0.000000 -1.000000
vn 0.000000 0.000000 -1.000000
vn 0.000000 0.000000 -1.000000
vn 0.000000 0.000000 -1.000000
vn 0.000000 0.000000 -1.000000
vn 0.000000 -1.000000 0.000000
vn 0.000000 -1.000000 0.000000
vn 0.000000 -1.000000 0.000000
vn 0.000000 -1.000000 0.000000
vn 0.000000 -1.000000 0.000000
vn 0.000000 -1.000000 0.000000
vn 1.000000 0.000000 0.000000
vn 1.000000 0.000000 0.000000
vn 1.000000 0.000000 0.000000
vn 1.000000 0.000000 0.000000
vn 1.000000 0.000000 0.000000
vn 1.000000 0.000000 0.000000
vn -1.000000 0.000000 0.000000
vn -1.000000 0.000000 0.000000
vn -1.000000 0.000000 0.000000
vn -1.000000 0.000000 0.000000
vn -1.000000 0.000000 0.000000
vn -1.000000 0.000000 0.000000
g titan_vortex_blocker
usemtl titan_vortex_blocker
f 3/3/3 2/2/2 1/1/1
f 6/6/6 5/5/5 4/4/4
f 9/9/9 8/8/8 7/7/7
f 12/12/12 11/11/11 10/10/10
f 15/15/15 14/14/14 13/13/13
f 18/18/18 17/17/17 16/16/16
f 21/21/21 20/20/20 19/19/19
f 24/24/24 23/23/23 22/22/22
f 27/27/27 26/26/26 25/25/25
f 30/30/30 29/29/29 28/28/28
f 33/33/33 32/32/32 31/31/31
f 36/36/36 35/35/35 34/34/34
